<svg style="position: absolute; width: 0; height: 0;" width="0" height="0" version="1.1" xmlns="http://www.w3.org/2000/svg" xmlns:xlink="http://www.w3.org/1999/xlink">
	<defs>
		<symbol id="search" viewBox="0 0 26 28">
			<path class="path1" d="M18 13q0-2.891-2.055-4.945t-4.945-2.055-4.945 2.055-2.055 4.945 2.055 4.945 4.945 2.055 4.945-2.055 2.055-4.945zM26 26q0 0.812-0.594 1.406t-1.406 0.594q-0.844 0-1.406-0.594l-5.359-5.344q-2.797 1.937-6.234 1.937-2.234 0-4.273-0.867t-3.516-2.344-2.344-3.516-0.867-4.273 0.867-4.273 2.344-3.516 3.516-2.344 4.273-0.867 4.273 0.867 3.516 2.344 2.344 3.516 0.867 4.273q0 3.437-1.937 6.234l5.359 5.359q0.578 0.578 0.578 1.406z"></path>
		</symbol>
		<symbol id="heart" viewBox="0 0 28 28">
			<path class="path1" d="M14 26q-0.406 0-0.688-0.281l-9.75-9.406q-0.156-0.125-0.43-0.406t-0.867-1.023-1.062-1.523-0.836-1.891-0.367-2.156q0-3.437 1.984-5.375t5.484-1.937q0.969 0 1.977 0.336t1.875 0.906 1.492 1.070 1.188 1.062q0.562-0.562 1.188-1.062t1.492-1.070 1.875-0.906 1.977-0.336q3.5 0 5.484 1.937t1.984 5.375q0 3.453-3.578 7.031l-9.734 9.375q-0.281 0.281-0.688 0.281z"></path>
		</symbol>
		<symbol id="times-circle" viewBox="0 0 24 28">
			<path class="path1" d="M17.953 17.531q0-0.406-0.297-0.703l-2.828-2.828 2.828-2.828q0.297-0.297 0.297-0.703 0-0.422-0.297-0.719l-1.406-1.406q-0.297-0.297-0.719-0.297-0.406 0-0.703 0.297l-2.828 2.828-2.828-2.828q-0.297-0.297-0.703-0.297-0.422 0-0.719 0.297l-1.406 1.406q-0.297 0.297-0.297 0.719 0 0.406 0.297 0.703l2.828 2.828-2.828 2.828q-0.297 0.297-0.297 0.703 0 0.422 0.297 0.719l1.406 1.406q0.297 0.297 0.719 0.297 0.406 0 0.703-0.297l2.828-2.828 2.828 2.828q0.297 0.297 0.703 0.297 0.422 0 0.719-0.297l1.406-1.406q0.297-0.297 0.297-0.719zM24 14q0 3.266-1.609 6.023t-4.367 4.367-6.023 1.609-6.023-1.609-4.367-4.367-1.609-6.023 1.609-6.023 4.367-4.367 6.023-1.609 6.023 1.609 4.367 4.367 1.609 6.023z"></path>
		</symbol>
		<symbol id="heart-o" viewBox="0 0 28 28">
			<path class="path1" d="M26 9.312q0-1.266-0.336-2.234t-0.859-1.539-1.273-0.93-1.469-0.484-1.531-0.125-1.75 0.398-1.727 1-1.352 1.125-0.938 0.961q-0.281 0.344-0.766 0.344t-0.766-0.344q-0.375-0.438-0.938-0.961t-1.352-1.125-1.727-1-1.75-0.398-1.531 0.125-1.469 0.484-1.273 0.93-0.859 1.539-0.336 2.234q0 2.625 2.922 5.547l9.078 8.75 9.063-8.734q2.938-2.938 2.938-5.563zM28 9.312q0 3.453-3.578 7.031l-9.734 9.375q-0.281 0.281-0.688 0.281t-0.688-0.281l-9.75-9.406q-0.156-0.125-0.43-0.406t-0.867-1.023-1.062-1.523-0.836-1.891-0.367-2.156q0-3.437 1.984-5.375t5.484-1.937q0.969 0 1.977 0.336t1.875 0.906 1.492 1.070 1.188 1.062q0.562-0.562 1.188-1.062t1.492-1.070 1.875-0.906 1.977-0.336q3.5 0 5.484 1.937t1.984 5.375z"></path>
		</symbol>
		<symbol id="phone" viewBox="0 0 24 28">
			<path class="path1" d="M20 18.641q0-0.172-0.031-0.25-0.047-0.125-0.602-0.461t-1.383-0.773l-0.828-0.453q-0.078-0.047-0.297-0.203t-0.391-0.234-0.328-0.078q-0.281 0-0.734 0.508t-0.891 1.023-0.688 0.516q-0.109 0-0.258-0.055t-0.242-0.102-0.266-0.148-0.219-0.133q-1.547-0.859-2.664-1.977t-1.977-2.664q-0.031-0.047-0.133-0.219t-0.148-0.266-0.102-0.242-0.055-0.258q0-0.203 0.32-0.523t0.703-0.602 0.703-0.617 0.32-0.57q0-0.156-0.078-0.328t-0.234-0.391-0.203-0.297q-0.047-0.094-0.234-0.445t-0.391-0.711-0.414-0.742-0.391-0.633-0.258-0.281-0.25-0.031q-0.75 0-1.578 0.344-0.719 0.328-1.25 1.477t-0.531 2.039q0 0.25 0.039 0.531t0.078 0.477 0.141 0.516 0.156 0.461 0.195 0.516 0.172 0.469q0.938 2.562 3.383 5.008t5.008 3.383q0.094 0.031 0.469 0.172t0.516 0.195 0.461 0.156 0.516 0.141 0.477 0.078 0.531 0.039q0.891 0 2.039-0.531t1.477-1.25q0.344-0.828 0.344-1.578zM24 6.5v15q0 1.859-1.32 3.18t-3.18 1.32h-15q-1.859 0-3.18-1.32t-1.32-3.18v-15q0-1.859 1.32-3.18t3.18-1.32h15q1.859 0 3.18 1.32t1.32 3.18z"></path>
		</symbol>
		<symbol id="facebook" viewBox="0 0 16 28">
			<path class="path1" d="M14.984 0.187v4.125h-2.453q-1.344 0-1.813 0.562t-0.469 1.687v2.953h4.578l-0.609 4.625h-3.969v11.859h-4.781v-11.859h-3.984v-4.625h3.984v-3.406q0-2.906 1.625-4.508t4.328-1.602q2.297 0 3.563 0.187z"></path>
		</symbol>
		<symbol id="pinterest" viewBox="0 0 24 28">
			<path class="path1" d="M24 14q0 3.266-1.609 6.023t-4.367 4.367-6.023 1.609q-1.734 0-3.406-0.5 0.922-1.453 1.219-2.562 0.141-0.531 0.844-3.297 0.313 0.609 1.141 1.055t1.781 0.445q1.891 0 3.375-1.070t2.297-2.945 0.812-4.219q0-1.781-0.93-3.344t-2.695-2.547-3.984-0.984q-1.641 0-3.063 0.453t-2.414 1.203-1.703 1.727-1.047 2.023-0.336 2.094q0 1.625 0.625 2.859t1.828 1.734q0.469 0.187 0.594-0.313 0.031-0.109 0.125-0.484t0.125-0.469q0.094-0.359-0.172-0.672-0.797-0.953-0.797-2.359 0-2.359 1.633-4.055t4.273-1.695q2.359 0 3.68 1.281t1.32 3.328q0 2.656-1.070 4.516t-2.742 1.859q-0.953 0-1.531-0.68t-0.359-1.633q0.125-0.547 0.414-1.461t0.469-1.609 0.18-1.18q0-0.781-0.422-1.297t-1.203-0.516q-0.969 0-1.641 0.891t-0.672 2.219q0 1.141 0.391 1.906l-1.547 6.531q-0.266 1.094-0.203 2.766-3.219-1.422-5.203-4.391t-1.984-6.609q0-3.266 1.609-6.023t4.367-4.367 6.023-1.609 6.023 1.609 4.367 4.367 1.609 6.023z"></path>
		</symbol>
		<symbol id="caret-up" viewBox="0 0 16 28">
			<path class="path1" d="M16 19q0 0.406-0.297 0.703t-0.703 0.297h-14q-0.406 0-0.703-0.297t-0.297-0.703 0.297-0.703l7-7q0.297-0.297 0.703-0.297t0.703 0.297l7 7q0.297 0.297 0.297 0.703z"></path>
		</symbol>
		<symbol id="envelope" viewBox="0 0 28 28">
			<path class="path1" d="M28 11.094v12.406q0 1.031-0.734 1.766t-1.766 0.734h-23q-1.031 0-1.766-0.734t-0.734-1.766v-12.406q0.688 0.766 1.578 1.359 5.656 3.844 7.766 5.391 0.891 0.656 1.445 1.023t1.477 0.75 1.719 0.383h0.031q0.797 0 1.719-0.383t1.477-0.75 1.445-1.023q2.656-1.922 7.781-5.391 0.891-0.609 1.563-1.359zM28 6.5q0 1.234-0.766 2.359t-1.906 1.922q-5.875 4.078-7.313 5.078-0.156 0.109-0.664 0.477t-0.844 0.594-0.812 0.508-0.898 0.422-0.781 0.141h-0.031q-0.359 0-0.781-0.141t-0.898-0.422-0.812-0.508-0.844-0.594-0.664-0.477q-1.422-1-4.094-2.852t-3.203-2.227q-0.969-0.656-1.828-1.805t-0.859-2.133q0-1.219 0.648-2.031t1.852-0.812h23q1.016 0 1.758 0.734t0.742 1.766z"></path>
		</symbol>
		<symbol id="linkedin" viewBox="0 0 24 28">
			<path class="path1" d="M5.453 9.766v15.484h-5.156v-15.484h5.156zM5.781 4.984q0.016 1.141-0.789 1.906t-2.117 0.766h-0.031q-1.281 0-2.063-0.766t-0.781-1.906q0-1.156 0.805-1.914t2.102-0.758 2.078 0.758 0.797 1.914zM24 16.375v8.875h-5.141v-8.281q0-1.641-0.633-2.57t-1.977-0.93q-0.984 0-1.648 0.539t-0.992 1.336q-0.172 0.469-0.172 1.266v8.641h-5.141q0.031-6.234 0.031-10.109t-0.016-4.625l-0.016-0.75h5.141v2.25h-0.031q0.313-0.5 0.641-0.875t0.883-0.812 1.359-0.68 1.789-0.242q2.672 0 4.297 1.773t1.625 5.195z"></path>
		</symbol>
		<symbol id="instagram" viewBox="0 0 24 28">
			<path class="path1" d="M21.281 22.281v-10.125h-2.109q0.313 0.984 0.313 2.047 0 1.969-1 3.633t-2.719 2.633-3.75 0.969q-3.078 0-5.266-2.117t-2.188-5.117q0-1.062 0.313-2.047h-2.203v10.125q0 0.406 0.273 0.68t0.68 0.273h16.703q0.391 0 0.672-0.273t0.281-0.68zM16.844 13.953q0-1.937-1.414-3.305t-3.414-1.367q-1.984 0-3.398 1.367t-1.414 3.305 1.414 3.305 3.398 1.367q2 0 3.414-1.367t1.414-3.305zM21.281 8.328v-2.578q0-0.438-0.313-0.758t-0.766-0.32h-2.719q-0.453 0-0.766 0.32t-0.313 0.758v2.578q0 0.453 0.313 0.766t0.766 0.313h2.719q0.453 0 0.766-0.313t0.313-0.766zM24 5.078v17.844q0 1.266-0.906 2.172t-2.172 0.906h-17.844q-1.266 0-2.172-0.906t-0.906-2.172v-17.844q0-1.266 0.906-2.172t2.172-0.906h17.844q1.266 0 2.172 0.906t0.906 2.172z"></path>
		</symbol>
		<symbol id="pinterest-p" viewBox="0 0 20 28">
			<path class="path1" d="M0 9.328q0-1.687 0.586-3.18t1.617-2.602 2.375-1.922 2.891-1.219 3.156-0.406q2.469 0 4.594 1.039t3.453 3.023 1.328 4.484q0 1.5-0.297 2.938t-0.938 2.766-1.563 2.336-2.266 1.609-2.953 0.602q-1.062 0-2.109-0.5t-1.5-1.375q-0.156 0.609-0.438 1.758t-0.367 1.484-0.32 1.109-0.406 1.109-0.5 0.977-0.719 1.211-0.969 1.352l-0.219 0.078-0.141-0.156q-0.234-2.453-0.234-2.938 0-1.437 0.336-3.227t1.039-4.492 0.812-3.172q-0.5-1.016-0.5-2.641 0-1.297 0.812-2.438t2.063-1.141q0.953 0 1.484 0.633t0.531 1.602q0 1.031-0.688 2.984t-0.688 2.922q0 0.984 0.703 1.633t1.703 0.648q0.859 0 1.594-0.391t1.227-1.062 0.875-1.484 0.594-1.727 0.313-1.734 0.102-1.555q0-2.703-1.711-4.211t-4.461-1.508q-3.125 0-5.219 2.023t-2.094 5.133q0 0.688 0.195 1.328t0.422 1.016 0.422 0.711 0.195 0.477q0 0.438-0.234 1.141t-0.578 0.703q-0.031 0-0.266-0.047-0.797-0.234-1.414-0.875t-0.953-1.477-0.508-1.687-0.172-1.664z"></path>
		</symbol>
	</defs>
</svg>
